<?xml version="1.0" standalone="no"?>
<!DOCTYPE svg PUBLIC "-//W3C//DTD SVG 20010904//EN"
 "http://www.w3.org/TR/2001/REC-SVG-20010904/DTD/svg10.dtd">
<svg version="1.0" xmlns="http://www.w3.org/2000/svg"
 width="254.000000pt" height="254.000000pt" viewBox="0 0 254.000000 254.000000"
 preserveAspectRatio="xMidYMid meet">
<metadata>
Created by potrace 1.11, written by Peter Selinger 2001-2013
</metadata>
<g transform="translate(0.000000,254.000000) scale(0.100000,-0.100000)"
fill="#000000" stroke="none">
<path d="M1210 2510 c-14 -4 -69 -8 -124 -9 -144 -1 -276 -40 -276 -80 0 -12
-10 -21 -27 -26 -94 -23 -233 -118 -233 -158 0 -12 -17 -38 -36 -57 -67 -66
-131 -193 -106 -209 7 -4 2 -35 -15 -91 -23 -76 -26 -103 -27 -255 -1 -93 2
-190 6 -215 7 -43 5 -46 -20 -57 -15 -7 -40 -15 -55 -19 -94 -22 -129 -150
-91 -331 18 -89 47 -149 115 -243 44 -61 62 -75 120 -93 10 -3 21 -26 29 -59
18 -81 57 -179 94 -238 l34 -54 -29 -18 c-16 -10 -38 -18 -48 -18 -10 0 -21
-7 -25 -15 -3 -8 -14 -15 -24 -15 -14 0 -21 -9 -25 -30 -5 -21 -12 -30 -27
-30 -15 0 -20 -7 -20 -25 0 -14 -4 -25 -8 -25 -12 0 -32 -93 -25 -118 l5 -22
867 0 866 0 11 24 c6 14 8 28 3 33 -5 5 -10 23 -12 41 -2 18 -9 38 -15 44 -7
7 -12 19 -12 28 0 8 -10 20 -22 25 -13 6 -24 20 -26 33 -2 13 -10 22 -22 22
-10 0 -20 7 -24 15 -3 8 -11 15 -19 15 -7 0 -30 8 -50 18 l-36 17 20 30 c42
63 81 149 103 232 20 78 26 88 52 97 45 17 57 27 107 93 62 81 94 152 112 248
27 141 15 233 -37 285 -15 15 -40 31 -55 34 -15 4 -41 12 -56 19 -28 12 -28
12 -20 77 4 36 8 128 7 205 0 111 -5 156 -22 217 -14 51 -19 85 -13 100 15 40
-30 169 -77 221 -9 10 -16 27 -17 38 -4 49 -142 156 -252 194 -34 12 -60 25
-57 28 3 3 -13 15 -37 27 -29 15 -68 24 -123 27 -45 3 -106 12 -136 19 -59 15
-130 17 -170 4z m-553 -640 c30 -23 68 -27 60 -6 -10 25 4 25 40 0 36 -24 63
-31 63 -15 0 5 17 0 38 -10 55 -27 110 -35 117 -17 5 13 13 12 58 -3 65 -23
107 -24 107 -4 0 19 5 19 34 0 21 -14 24 -14 30 0 5 14 10 13 36 -7 30 -22 30
-22 88 -4 103 33 142 47 147 57 13 19 25 9 15 -12 -13 -23 -13 -24 16 -33 12
-4 38 3 67 18 l47 23 0 -24 c0 -22 3 -24 28 -18 15 4 51 8 80 10 34 2 69 13
97 29 24 14 46 26 48 26 14 0 48 -72 42 -89 -3 -11 -1 -22 5 -26 14 -9 13 -45
-2 -45 -6 0 -2 -10 10 -23 25 -27 29 -67 7 -67 -22 0 -18 -16 8 -27 18 -9 29
-5 64 24 l42 34 7 -27 c8 -31 -1 -230 -11 -256 -16 -42 -131 -7 -186 56 -56
64 -97 86 -171 93 -69 6 -190 -10 -251 -34 -42 -17 -57 -38 -57 -79 0 -26 1
-27 50 -21 l50 6 -68 -37 c-65 -35 -70 -36 -172 -37 -103 0 -107 1 -172 37
l-68 37 50 -6 c49 -6 50 -5 50 21 0 41 -15 62 -57 79 -61 24 -182 40 -251 34
-74 -7 -115 -29 -171 -93 -39 -45 -102 -74 -163 -74 -25 0 -27 4 -34 58 -10
81 -10 225 0 240 6 11 11 9 23 -7 8 -12 23 -21 34 -21 10 0 18 -6 16 -12 -1
-8 9 -13 27 -13 16 0 31 6 34 13 2 6 -4 12 -13 12 -12 0 -15 5 -9 23 3 12 13
29 20 38 17 19 18 36 2 42 -10 3 -10 8 2 22 8 9 15 32 16 49 1 33 29 86 46 86
5 0 21 -9 35 -20z m1343 -240 c-8 -5 -19 -10 -25 -10 -5 0 -3 5 5 10 8 5 20
10 25 10 6 0 3 -5 -5 -10z m-1162 -207 c-21 -2 -55 -2 -75 0 -21 2 -4 4 37 4
41 0 58 -2 38 -4z m880 0 c-21 -2 -55 -2 -75 0 -21 2 -4 4 37 4 41 0 58 -2 38
-4z m-791 -9 c-3 -3 -12 -4 -19 -1 -8 3 -5 6 6 6 11 1 17 -2 13 -5z m650 0
c-3 -3 -12 -4 -19 -1 -8 3 -5 6 6 6 11 1 17 -2 13 -5z m-607 -89 c25 -9 55
-23 68 -33 23 -18 21 -18 -72 -14 -53 3 -139 1 -191 -3 -108 -8 -147 -27 -180
-87 l-20 -37 30 -31 c17 -18 53 -44 80 -58 45 -24 61 -27 155 -27 99 0 109 2
169 33 35 18 66 31 68 28 9 -9 -27 -76 -61 -114 -100 -110 -299 -114 -381 -6
-91 119 -99 292 -15 335 76 40 252 46 350 14z m802 14 c113 -24 142 -57 140
-156 -2 -167 -106 -286 -249 -285 -79 1 -149 28 -198 77 -38 37 -75 109 -63
121 3 2 33 -10 69 -28 52 -26 79 -33 145 -36 110 -6 177 14 241 72 l48 44 -20
38 c-34 64 -70 81 -191 89 -58 4 -143 5 -189 3 -46 -2 -82 -1 -79 4 3 5 23 17
44 28 71 36 207 49 302 29z m-1423 -65 c38 -19 51 -41 51 -89 l0 -35 -43 45
c-41 42 -67 56 -67 36 0 -5 6 -11 14 -14 8 -3 22 -17 32 -31 15 -24 15 -29 0
-66 -20 -51 -21 -110 -1 -136 15 -18 15 -18 9 9 -7 31 2 105 16 127 18 29 39
-19 40 -90 0 -36 5 -94 10 -129 12 -69 9 -81 -15 -61 -9 7 -18 10 -22 7 -3 -4
8 -14 25 -24 31 -18 42 -38 42 -80 0 -48 -41 -13 -110 93 -97 148 -119 374
-43 434 31 24 23 23 62 4z m1844 -4 c48 -38 58 -118 31 -248 -20 -97 -50 -161
-111 -236 -54 -67 -73 -79 -73 -44 0 40 12 67 31 73 10 4 28 21 40 38 l22 32
-31 -29 c-18 -16 -34 -27 -37 -24 -3 3 -1 36 5 74 5 38 10 96 10 130 0 36 6
68 14 80 14 18 16 17 31 -21 11 -25 15 -55 12 -83 -6 -56 12 -41 20 16 3 25
-1 60 -12 93 l-18 53 32 28 c34 31 38 38 17 38 -8 0 -33 -21 -56 -47 l-41 -47
3 49 c3 43 7 52 37 72 41 28 42 28 74 3z m-763 -37 c0 -5 -9 -19 -20 -33 -15
-19 -20 -21 -20 -8 0 9 7 24 16 32 17 18 24 20 24 9z m-939 -102 c33 -141 88
-220 187 -268 78 -37 200 -39 280 -4 110 49 192 173 192 290 0 62 20 81 85 81
78 0 82 -6 93 -150 6 -69 14 -133 17 -142 12 -32 21 -19 16 24 l-4 43 35 -45
c65 -86 193 -139 302 -126 150 19 253 122 292 293 21 95 24 103 36 103 20 0 2
-281 -26 -420 -73 -350 -94 -399 -232 -538 -51 -50 -98 -92 -104 -92 -16 0 -1
42 21 58 23 16 41 81 41 147 0 28 5 53 10 56 16 10 -9 72 -40 101 -66 62 -66
62 -432 64 -394 2 -414 -1 -479 -71 -38 -41 -56 -95 -32 -95 5 0 6 -19 4 -43
-6 -55 11 -118 43 -156 14 -17 24 -38 22 -47 -4 -23 -147 112 -197 186 -53 80
-76 145 -112 319 -43 202 -58 319 -59 436 0 119 13 117 41 -4z m369 85 c0 -19
-30 -29 -46 -15 -22 18 -16 29 16 29 19 0 30 -5 30 -14z m134 4 c26 -9 66 -63
66 -88 0 -7 -30 -27 -67 -44 -126 -59 -295 -39 -353 42 l-20 28 31 31 c22 23
40 31 65 31 32 0 33 -2 28 -29 -8 -40 18 -85 62 -106 31 -15 43 -15 76 -6 45
14 79 60 77 106 -2 51 -3 50 35 35z m86 -12 c0 -12 -1 -19 -3 -17 -1 2 -9 12
-16 22 -12 14 -11 17 3 17 10 0 16 -8 16 -22z m444 -30 c2 -56 24 -83 76 -99
30 -9 44 -8 73 6 41 19 72 74 63 111 -6 22 -3 24 29 24 39 0 85 -36 85 -66 0
-27 -59 -73 -118 -90 -75 -22 -167 -12 -249 26 -75 34 -79 51 -29 105 47 49
68 44 70 -17z m116 42 c0 -13 -32 -28 -47 -23 -26 9 -13 33 17 33 17 0 30 -4
30 -10z m-103 -727 c-36 -35 -351 -57 -477 -33 -80 15 -130 30 -130 38 0 4
139 8 310 8 242 0 307 -3 297 -13z m-659 -14 c-4 -17 20 -26 121 -44 151 -26
281 -30 401 -10 58 10 124 20 148 22 33 4 45 10 51 26 l8 21 12 -21 c35 -66
-3 -132 -106 -186 -112 -58 -170 -60 -198 -7 -19 36 -19 40 -1 40 8 0 17 3 19
8 3 4 -34 6 -81 4 -86 -3 -87 -4 -89 -30 -2 -41 -39 -65 -88 -58 -61 10 -159
61 -199 106 -40 44 -46 81 -20 118 16 24 25 28 22 11z"/>
<path d="M500 1555 c0 -11 7 -15 23 -13 12 2 22 8 22 13 0 6 -10 11 -22 13
-16 2 -23 -2 -23 -13z"/>
<path d="M1935 1560 c-8 -13 20 -24 40 -16 8 3 15 10 15 16 0 13 -47 13 -55 0z"/>
<path d="M1418 737 c5 -44 -15 -61 -54 -47 -24 9 -33 7 -70 -20 -50 -35 -74
-38 -100 -9 -29 32 -50 40 -78 29 -38 -14 -54 -3 -58 38 -4 36 -4 37 -12 9 -6
-20 -4 -34 9 -53 14 -22 21 -25 54 -19 31 5 43 1 75 -24 49 -39 66 -39 111 0
30 27 40 30 73 24 28 -4 42 -2 51 9 15 18 18 73 5 86 -6 6 -9 -2 -6 -23z"/>
</g>
</svg>
